<?xml version="1.0" encoding="UTF-8" standalone="no"?>
<!-- Generator: Adobe Illustrator 19.0.0, SVG Export Plug-In . SVG Version: 6.00 Build 0)  -->

<svg
   xmlns:dc="http://purl.org/dc/elements/1.1/"
   xmlns:cc="http://creativecommons.org/ns#"
   xmlns:rdf="http://www.w3.org/1999/02/22-rdf-syntax-ns#"
   xmlns:svg="http://www.w3.org/2000/svg"
   xmlns="http://www.w3.org/2000/svg"
   xmlns:sodipodi="http://sodipodi.sourceforge.net/DTD/sodipodi-0.dtd"
   xmlns:inkscape="http://www.inkscape.org/namespaces/inkscape"
   version="1.1"
   id="Layer_1"
   x="0px"
   y="0px"
   viewBox="0 0 494.155 219.912"
   xml:space="preserve"
   sodipodi:docname="exit.svg"
   inkscape:version="0.92.5 (2060ec1f9f, 2020-04-08)"
   width="494.155"
   height="219.912"><metadata
   id="metadata53"><rdf:RDF><cc:Work
       rdf:about=""><dc:format>image/svg+xml</dc:format><dc:type
         rdf:resource="http://purl.org/dc/dcmitype/StillImage" /></cc:Work></rdf:RDF></metadata><defs
   id="defs51" /><sodipodi:namedview
   pagecolor="#ffffff"
   bordercolor="#666666"
   borderopacity="1"
   objecttolerance="10"
   gridtolerance="10"
   guidetolerance="10"
   inkscape:pageopacity="0"
   inkscape:pageshadow="2"
   inkscape:window-width="1920"
   inkscape:window-height="1025"
   id="namedview49"
   showgrid="false"
   inkscape:zoom="1.3037281"
   inkscape:cx="211.85069"
   inkscape:cy="279.64487"
   inkscape:window-x="0"
   inkscape:window-y="30"
   inkscape:window-maximized="1"
   inkscape:current-layer="Layer_1" />
<path
   style="fill:#9ad14b"
   d="M 468.339,219.912 H 25.816 C 11.558,219.912 0,208.354 0,194.096 V 25.816 C 0,11.558 11.558,0 25.816,0 h 442.523 c 14.258,0 25.816,11.558 25.816,25.816 v 168.28 c 0,14.258 -11.558,25.816 -25.816,25.816 z"
   id="path2"
   inkscape:connector-curvature="0" />

<g
   id="g14"
   transform="translate(-8.922,-199.728)">
	<path
   style="fill:#f2f2f2"
   d="m 301.3,258.454 c -4.928,0 -8.923,3.995 -8.923,8.923 v 84.615 c 0,4.928 3.995,8.923 8.923,8.923 4.928,0 8.923,-3.995 8.923,-8.923 v -84.615 c 0,-4.928 -3.995,-8.923 -8.923,-8.923 z"
   id="path6"
   inkscape:connector-curvature="0" />
	<path
   style="fill:#f2f2f2"
   d="m 256.921,259.98 c -4.084,-2.757 -9.631,-1.68 -12.387,2.404 l -21.156,31.348 -21.156,-31.348 c -2.758,-4.087 -8.303,-5.162 -12.387,-2.404 -4.085,2.757 -5.161,8.303 -2.404,12.387 l 25.184,37.317 -25.184,37.317 c -2.757,4.084 -1.68,9.631 2.404,12.387 1.53,1.033 3.266,1.528 4.983,1.528 2.866,0 5.681,-1.379 7.405,-3.933 l 21.156,-31.348 21.156,31.348 c 1.724,2.554 4.538,3.933 7.405,3.933 1.717,0 3.453,-0.495 4.983,-1.528 4.085,-2.757 5.161,-8.303 2.404,-12.387 l -25.184,-37.317 25.184,-37.317 c 2.757,-4.084 1.68,-9.63 -2.406,-12.387 z"
   id="path8"
   inkscape:connector-curvature="0" />
	<path
   style="fill:#f2f2f2"
   d="m 159.174,276.3 c 4.928,0 8.923,-3.995 8.923,-8.923 0,-4.928 -3.995,-8.923 -8.923,-8.923 h -50.041 c -4.928,0 -8.923,3.995 -8.923,8.923 v 84.615 c 0,4.928 3.995,8.923 8.923,8.923 h 50.042 c 4.928,0 8.923,-3.995 8.923,-8.923 0,-4.928 -3.995,-8.923 -8.923,-8.923 h -41.119 v -23.552 h 16.098 c 4.928,0 8.923,-3.995 8.923,-8.923 0,-4.928 -3.995,-8.923 -8.923,-8.923 H 118.056 V 276.3 Z"
   id="path10"
   inkscape:connector-curvature="0" />
	<path
   style="fill:#f2f2f2"
   d="m 402.866,258.454 h -61.565 c -4.928,0 -8.923,3.995 -8.923,8.923 0,4.928 3.995,8.923 8.923,8.923 h 21.86 v 75.692 c 0,4.928 3.995,8.923 8.923,8.923 4.928,0 8.923,-3.995 8.923,-8.923 V 276.3 h 21.86 c 4.928,0 8.923,-3.995 8.923,-8.923 0,-4.928 -3.996,-8.923 -8.924,-8.923 z"
   id="path12"
   inkscape:connector-curvature="0" />
</g>

<g
   id="g18"
   transform="translate(-8.922,-199.728)">
</g>
<g
   id="g20"
   transform="translate(-8.922,-199.728)">
</g>
<g
   id="g22"
   transform="translate(-8.922,-199.728)">
</g>
<g
   id="g24"
   transform="translate(-8.922,-199.728)">
</g>
<g
   id="g26"
   transform="translate(-8.922,-199.728)">
</g>
<g
   id="g28"
   transform="translate(-8.922,-199.728)">
</g>
<g
   id="g30"
   transform="translate(-8.922,-199.728)">
</g>
<g
   id="g32"
   transform="translate(-8.922,-199.728)">
</g>
<g
   id="g34"
   transform="translate(-8.922,-199.728)">
</g>
<g
   id="g36"
   transform="translate(-8.922,-199.728)">
</g>
<g
   id="g38"
   transform="translate(-8.922,-199.728)">
</g>
<g
   id="g40"
   transform="translate(-8.922,-199.728)">
</g>
<g
   id="g42"
   transform="translate(-8.922,-199.728)">
</g>
<g
   id="g44"
   transform="translate(-8.922,-199.728)">
</g>
<g
   id="g46"
   transform="translate(-8.922,-199.728)">
</g>
</svg>