<?xml version="1.0" encoding="UTF-8" standalone="no"?>
<!-- Uploaded to SVGRepo https://www.svgrepo.com -->

<svg
   xmlns:dc="http://purl.org/dc/elements/1.1/"
   xmlns:cc="http://creativecommons.org/ns#"
   xmlns:rdf="http://www.w3.org/1999/02/22-rdf-syntax-ns#"
   xmlns:svg="http://www.w3.org/2000/svg"
   xmlns="http://www.w3.org/2000/svg"
   xmlns:sodipodi="http://sodipodi.sourceforge.net/DTD/sodipodi-0.dtd"
   xmlns:inkscape="http://www.inkscape.org/namespaces/inkscape"
   version="1.2"
   id="_x31_"
   x="0px"
   y="0px"
   viewBox="-191 65 256 256"
   xml:space="preserve"
   sodipodi:docname="move.svg"
   inkscape:version="0.92.5 (2060ec1f9f, 2020-04-08)"><metadata
   id="metadata9"><rdf:RDF><cc:Work
       rdf:about=""><dc:format>image/svg+xml</dc:format><dc:type
         rdf:resource="http://purl.org/dc/dcmitype/StillImage" /></cc:Work></rdf:RDF></metadata><defs
   id="defs7" /><sodipodi:namedview
   pagecolor="#ffffff"
   bordercolor="#666666"
   borderopacity="1"
   objecttolerance="10"
   gridtolerance="10"
   guidetolerance="10"
   inkscape:pageopacity="0"
   inkscape:pageshadow="2"
   inkscape:window-width="1920"
   inkscape:window-height="1025"
   id="namedview5"
   showgrid="false"
   inkscape:zoom="0.921875"
   inkscape:cx="14.101695"
   inkscape:cy="128"
   inkscape:window-x="0"
   inkscape:window-y="30"
   inkscape:window-maximized="1"
   inkscape:current-layer="_x31_" />
<path
   d="M0.4,95.8c-5.1,10.8-17.9,15.5-28.8,10.5s-15.5-17.9-10.5-28.8S-20.9,62-10,67S5.5,85,0.4,95.8z M47.1,167.2  c0,5.1-4.3,9.5-9.5,9.5H-6.8c-4.1,0-7.6-2.7-8.9-6.2l-8.1-21.9l-27.1,57.9l35.2,96.6c2.4,7-1.1,14.9-8.1,17.3  c-7,2.4-14.9-1.1-17.3-8.1l-33.8-92.8l-17.3,36.8c-2.2,4.6-6.8,7.8-12.2,7.8h-54.1c-7.6,0-13.5-6-13.5-13.5s6-13.5,13.5-13.5h45.4  l49.2-105.5l-21.1,7.6l-17.3,36.8c-2.4,4.9-7.8,6.8-12.7,4.6c-4.9-2.4-6.8-7.8-4.6-12.7l18.9-40.3c1.1-2.4,3.2-4.3,5.7-5.1l36-13  c7.8-3.2,17.3-3.5,25.7,0.5l3.8,1.9c9.2,3.2,16,10.6,19.2,18.9l9.7,26.8h37.9C42.5,157.5,46.8,161.8,47.1,167.2z"
   id="path2"
   style="fill-opacity:1;fill:#40db5c" />
</svg>